# xmcd
#
# Track frame offsets:
#	150
#	15589
#	29329
#	43426
#	52012
#	75015
#	88383
#	104609
#	123204
#	136384
#
# Disc length: 1998 seconds
#
# Revision: 0
# Processed by: cddbd v1.4PL0 Copyright (c) Steve Scherf et al.
# Submitted via: EasyCDDAExtractor 4.6.0.1
#
DISCID=8107cc0a
DTITLE=Julien Quintard - Pensée du Jour
DYEAR=2003
DGENRE=Pop
TTITLE0=Tu ne vois pas d'issue
TTITLE1=Pensée du Jour
TTITLE2=Vivre
TTITLE3=La realidad de la vida
TTITLE4=Love is more
TTITLE5=Aller plus haut
TTITLE6=Sa raison d'être
TTITLE7=Promise to try
TTITLE8=Let it be
TTITLE9=Imagine
EXTD=
EXTT0=
EXTT1=
EXTT2=
EXTT3=
EXTT4=
EXTT5=
EXTT6=
EXTT7=
EXTT8=
EXTT9=
PLAYORDER=
